<svg width="27" height="29" viewBox="0 0 27 29" fill="none" xmlns="http://www.w3.org/2000/svg">
<g clip-path="url(#clip0_2_2603)">
<path d="M26.3777 9.38274L14.1813 28.3738L4.13135 21.0111L17.3315 0.625977L26.3777 9.38274Z" fill="#B6F9D4"/>
<path d="M26.8091 8.93207L17.7629 0.175302C17.6468 0.0626079 17.4912 0 17.3315 0C17.3087 0 17.2859 0.00208693 17.261 0.00417386C17.0765 0.0250432 16.9126 0.127303 16.811 0.283823L3.61087 20.669C3.43044 20.9486 3.49888 21.3201 3.76641 21.5163L13.8143 28.881C13.9221 28.9603 14.0507 29 14.1813 29C14.2187 29 14.2581 28.9979 14.2954 28.9896C14.4634 28.9583 14.6106 28.8602 14.704 28.7141L26.9003 9.72301C27.0621 9.47049 27.0227 9.14076 26.8091 8.93207ZM26.3777 9.38284L14.1813 28.3739L4.13141 21.0112L17.3315 0.626079L26.3777 9.38284Z" fill="black"/>
<path d="M23.5179 11.5638L15.1415 24.4589C14.7745 24.2147 14.339 24.0749 13.8682 24.0749C13.0739 24.0749 12.3729 24.4735 11.954 25.085L7.73164 22.1174C8.00331 21.7334 8.15885 21.268 8.15885 20.7671C8.15885 19.9345 7.73164 19.204 7.08252 18.7887L16.1723 4.81255C16.5414 5.06298 16.9852 5.20489 17.4622 5.20489C18.1486 5.20489 18.7667 4.90855 19.1918 4.43481L23.0658 8.00764C22.6842 8.42503 22.454 8.98015 22.454 9.59371C22.454 10.4201 22.8791 11.1443 23.5179 11.5638Z" fill="#09D574"/>
<path d="M18.0864 16.7602C17.9412 16.9648 17.7691 17.1505 17.57 17.3216C17.3709 17.4928 17.1739 17.6284 16.9769 17.7307C16.7799 17.8329 16.6098 17.8893 16.4667 17.8955L16.0644 17.0295C16.3112 16.9752 16.5414 16.875 16.7571 16.731C16.9728 16.587 17.1553 16.4096 17.3066 16.1989C17.4705 15.9693 17.5514 15.7585 17.5514 15.5665C17.5514 15.3745 17.4684 15.218 17.3046 15.099H17.3025C17.1781 15.0072 17.0599 14.9697 16.9479 14.9843C16.8359 14.9989 16.728 15.0469 16.6223 15.1262C16.5165 15.2055 16.4107 15.2994 16.3029 15.4017C16.1639 15.5373 16.0167 15.6709 15.8632 15.8023C15.7098 15.9338 15.5439 16.0361 15.3634 16.1091C15.183 16.1822 14.9881 16.2051 14.7745 16.1738C14.5609 16.1425 14.3224 16.034 14.059 15.8441H14.0569C13.6338 15.5373 13.3995 15.17 13.3518 14.7443C13.3062 14.3164 13.4513 13.8678 13.7873 13.3961C13.9387 13.1812 14.1357 12.9912 14.3721 12.8243C14.6106 12.6573 14.8699 12.53 15.1519 12.4424L15.5957 13.2897C15.3717 13.3544 15.1706 13.4462 14.9943 13.561C14.818 13.6758 14.6749 13.8093 14.5691 13.9596C14.4178 14.1724 14.341 14.3665 14.341 14.5439C14.341 14.7213 14.4136 14.8632 14.5629 14.9717H14.565C14.704 15.074 14.8346 15.1157 14.957 15.097C15.0793 15.0782 15.1996 15.026 15.3157 14.9363C15.4319 14.8465 15.5501 14.7464 15.6704 14.6357C15.8114 14.5043 15.9607 14.3791 16.1142 14.2622C16.2676 14.1453 16.4356 14.0535 16.6119 13.9909C16.7882 13.9283 16.9811 13.9158 17.1864 13.9491C17.3917 13.9825 17.6198 14.089 17.8645 14.2643L17.8707 14.2684C18.2876 14.569 18.5157 14.9363 18.553 15.3724C18.5904 15.8065 18.4348 16.2698 18.0864 16.7602ZM13.6297 14.0347L12.9495 13.5443L13.5343 12.722L14.2145 13.2125L13.6297 14.0347ZM18.3394 17.4322L17.6219 16.9147L18.2067 16.0924L18.9243 16.61L18.3394 17.4322Z" fill="#B6F9D4"/>
<path d="M9.84734 6.18712C8.40183 5.87023 6.72441 6.05466 5.12253 6.7028C1.85905 8.02571 -0.0846988 10.8668 0.696634 13.1795L1.43531 15.0419L1.43894 15.0439C1.5714 15.3531 1.74805 15.6295 1.96303 15.8794C2.16309 16.1091 2.39402 16.313 2.65118 16.4908C2.76937 16.5728 2.89341 16.6484 3.0223 16.7196C3.16571 16.7988 3.31598 16.8699 3.47311 16.9329C3.58082 16.9781 3.68975 17.0168 3.80331 17.0557C3.96549 17.1095 4.13634 17.1562 4.31123 17.1956L4.61623 17.2568C4.79798 17.288 4.98376 17.312 5.17177 17.3276C5.26799 17.3379 5.3626 17.3424 5.45903 17.348C5.77533 17.363 6.09911 17.3559 6.43217 17.3277C6.52174 17.32 6.61131 17.3122 6.7029 17.3008C7.40352 17.2205 8.13059 17.0452 8.85628 16.7737C8.93657 16.7442 9.01788 16.7128 9.09736 16.6804C10.9246 15.9374 12.3364 14.7241 13.0878 13.3939C13.1433 13.2935 13.1977 13.1948 13.2468 13.0932C13.69 12.1793 13.8218 11.2245 13.5638 10.3405L13.5761 10.3354L12.8207 8.43039C12.3699 7.29923 11.3142 6.50391 9.84573 6.18146L9.84734 6.18712Z" fill="#C5BCDD"/>
<mask id="mask0_2_2603" style="mask-type:luminance" maskUnits="userSpaceOnUse" x="0" y="6" width="14" height="12">
<path d="M9.84734 6.18712C8.40183 5.87023 6.72441 6.05466 5.12253 6.7028C1.85905 8.02571 -0.0846988 10.8668 0.696634 13.1795L1.43531 15.0419L1.43894 15.0439C1.5714 15.3531 1.74805 15.6295 1.96303 15.8794C2.16309 16.1091 2.39402 16.313 2.65118 16.4908C2.76937 16.5728 2.89341 16.6484 3.0223 16.7196C3.16571 16.7988 3.31598 16.8699 3.47311 16.9329C3.58082 16.9781 3.68975 17.0168 3.80331 17.0557C3.96549 17.1095 4.13634 17.1562 4.31123 17.1956L4.61623 17.2568C4.79798 17.288 4.98376 17.312 5.17177 17.3276C5.26799 17.3379 5.3626 17.3424 5.45903 17.348C5.77533 17.363 6.09911 17.3559 6.43217 17.3277C6.52174 17.32 6.61131 17.3122 6.7029 17.3008C7.40352 17.2205 8.13059 17.0452 8.85628 16.7737C8.93657 16.7442 9.01788 16.7128 9.09736 16.6804C10.9246 15.9374 12.3364 14.7241 13.0878 13.3939C13.1433 13.2935 13.1977 13.1948 13.2468 13.0932C13.69 12.1793 13.8218 11.2245 13.5638 10.3405L13.5761 10.3354L12.8207 8.43039C12.3699 7.29923 11.3142 6.50391 9.84573 6.18146L9.84734 6.18712Z" fill="white"/>
</mask>
<g mask="url(#mask0_2_2603)">
<path d="M14.0896 -1.42133L-6.96997 7.23291L-1.40979 21.0032L19.6498 12.349L14.0896 -1.42133Z" fill="#0ADD73"/>
<path opacity="0.83" d="M5.46588 15.7829C5.08077 15.811 4.69285 15.797 4.3122 15.7441C4.0665 15.7085 3.82424 15.6581 3.5846 15.5901C3.46983 15.5577 3.35707 15.5217 3.24452 15.4809C3.12187 15.437 3.06297 15.445 3.06643 15.323C3.07171 15.159 3.20612 14.9328 3.26022 14.7791C3.34056 14.5565 3.41909 14.3328 3.49943 14.1102C3.91144 12.9526 4.32245 11.7968 4.73627 10.6402C5.17352 9.41546 5.60794 8.19155 6.04518 6.96682C6.33547 6.14967 6.62858 5.33168 6.91886 4.51453C6.95803 4.40503 6.99618 4.29736 7.03534 4.18787L9.75864 5.151C9.56687 5.69117 9.37227 6.23217 9.18049 6.77235C8.74426 7.99525 8.30883 9.22099 7.87259 10.4439C7.40547 11.757 6.93654 13.0692 6.46941 14.3823C6.37736 14.639 6.28713 14.8967 6.19508 15.1534C6.15369 15.2712 6.11231 15.389 6.0681 15.5077C6.00027 15.6991 5.97868 15.7253 5.76747 15.7517C5.66741 15.7655 5.56755 15.7747 5.46688 15.7811L5.46588 15.7829Z" fill="white"/>
</g>
<path d="M10.3267 6.66162C10.3688 6.67537 10.4063 6.68894 10.4457 6.70351C10.4915 6.71927 10.5362 6.73685 10.58 6.75627L10.7014 6.80665C10.7416 6.82406 10.7807 6.84329 10.8209 6.86069C10.861 6.8781 10.9001 6.89733 10.9364 6.91738C10.9709 6.93644 11.0072 6.95649 11.0409 6.97272C11.119 7.01583 11.197 7.05895 11.2702 7.10655C11.3065 7.12661 11.3408 7.15031 11.3751 7.17402C11.4094 7.19773 11.4437 7.22144 11.477 7.24698C11.5445 7.29622 11.6093 7.34629 11.673 7.39819C11.7027 7.42172 11.7331 7.44808 11.7608 7.47526C11.793 7.50262 11.8243 7.53181 11.8537 7.56C11.4609 7.16893 10.9435 6.86169 10.324 6.65778L10.3267 6.66162ZM0.8497 12.2674C0.826744 11.2796 1.23893 10.246 1.98293 9.31951C1.21371 10.2488 0.799509 11.286 0.8497 12.2674Z" fill="#111011"/>
<path d="M9.85833 6.16694C8.40818 5.84987 6.7233 6.03494 5.11577 6.68474C1.83998 8.01277 -0.111635 10.8638 0.673932 13.186L1.41503 15.0569L1.41866 15.0589C1.55112 15.3681 1.72857 15.6473 1.94537 15.8982C2.14542 16.1279 2.37817 16.3328 2.63715 16.5116C2.75534 16.5936 2.8812 16.6703 3.01009 16.7415C3.15349 16.8207 3.30558 16.8928 3.46271 16.9557C3.57042 17.0009 3.68116 17.0406 3.79291 17.0785C3.9569 17.1334 4.12776 17.18 4.30264 17.2194L4.60946 17.2816C4.79302 17.3139 4.97699 17.3368 5.16682 17.3535C5.26304 17.3637 5.35946 17.3693 5.4569 17.3731C5.7732 17.388 6.0998 17.3801 6.43186 17.3537C6.52143 17.346 6.61099 17.3382 6.70258 17.3268C7.40603 17.2457 8.13492 17.0714 8.86443 16.7973C8.94473 16.7677 9.02603 16.7363 9.10552 16.704C10.9384 15.9593 12.3561 14.7397 13.1123 13.4051C13.1678 13.3046 13.2233 13.2041 13.2713 13.1043C13.7165 12.1868 13.8475 11.2292 13.5897 10.3405L13.602 10.3354L12.8432 8.42371C12.3916 7.28973 11.3315 6.48956 9.85652 6.16594L9.85833 6.16694ZM1.73883 14.9211L1.63582 14.6615C1.7544 14.7771 1.88449 14.8847 2.02043 14.986L2.3553 15.8123C2.09513 15.5542 1.88602 15.2551 1.73984 14.9192L1.73883 14.9211ZM3.26131 16.4582C3.08946 16.3705 2.9291 16.2747 2.77945 16.1682L2.40345 15.2405C2.55029 15.3264 2.70399 15.4041 2.86354 15.4756L3.2603 16.4601L3.26131 16.4582ZM4.13067 16.793C3.94792 16.7422 3.77384 16.6841 3.60582 16.6152L3.19979 15.6089C3.36721 15.6704 3.53967 15.7227 3.71617 15.7678L4.13067 16.793ZM5.01077 16.9669C4.81651 16.9454 4.62649 16.912 4.44414 16.8732L4.02621 15.8413C4.20957 15.8782 4.39697 15.9078 4.58941 15.9283L5.00976 16.9687L5.01077 16.9669ZM6.29013 17.0012C5.95182 17.0218 5.62381 17.0194 5.30327 16.9949L4.88212 15.9517C5.20185 15.9733 5.53087 15.9739 5.86736 15.9523L6.29114 16.9994L6.29013 17.0012ZM8.73359 16.4723C8.00327 16.7436 7.26914 16.9102 6.56247 16.98L6.13869 15.9329C6.84819 15.8623 7.57949 15.6965 8.30982 15.4252L8.73258 16.4741L8.73359 16.4723ZM12.9453 12.991C12.2718 14.3475 10.852 15.6183 8.97569 16.3771L8.55292 15.3282L8.55857 15.3266C10.3866 14.5864 11.7954 13.3357 12.5308 11.9657L12.9453 12.991ZM13.2113 10.3007L13.2145 10.3121C13.4701 11.0588 13.4116 11.8681 13.0927 12.6599L12.6866 11.6536C12.9323 11.1146 13.077 10.5651 13.1008 10.0204L13.2105 10.2979L13.2113 10.3007ZM12.7774 9.20755C12.9168 9.89014 12.8287 10.6115 12.5497 11.3181C12.5049 11.4293 12.4573 11.5412 12.4024 11.6492C11.7275 13.0383 10.3197 14.3301 8.4614 15.0822L8.45474 15.0856C8.37424 15.1198 8.29112 15.1502 8.21083 15.1798C7.47768 15.4519 6.74274 15.6157 6.03547 15.678C5.94489 15.6876 5.8535 15.6943 5.76313 15.6993C5.42402 15.717 5.09419 15.7136 4.77204 15.6834C4.67299 15.674 4.57395 15.6646 4.47692 15.6516C4.28185 15.6272 4.09183 15.5938 3.90686 15.5512C3.80015 15.5257 3.69445 15.4983 3.59077 15.4672C3.40721 15.4135 3.23233 15.3527 3.0635 15.2809C2.94207 15.2305 2.82831 15.1748 2.71737 15.1183C2.54653 15.0287 2.38356 14.9291 2.23209 14.8216C2.08061 14.7141 1.93984 14.5958 1.80955 14.4714C1.61695 14.2839 1.45017 14.0797 1.31042 13.8523C1.21666 13.7004 1.1354 13.5387 1.06928 13.371C0.927546 13.0186 0.855418 12.6473 0.847643 12.2711C0.797451 11.2897 1.21165 10.2525 1.98087 9.32321C1.98491 9.3159 1.99177 9.30777 1.99762 9.30147C2.01921 9.27525 2.0408 9.24903 2.06421 9.22381C2.82818 8.30831 3.9171 7.50793 5.23048 6.9746C6.91851 6.29059 8.64453 6.18547 10.0267 6.56988C10.0414 6.57324 10.0561 6.57661 10.0717 6.58281C10.1185 6.59674 10.1616 6.60866 10.2084 6.62259C10.2488 6.63534 10.2891 6.64809 10.3284 6.66266C10.9479 6.86657 11.4663 7.17198 11.8581 7.56488L11.8618 7.56688C11.8751 7.58139 11.8894 7.59406 11.9027 7.60857C12.2155 7.91726 12.4601 8.27649 12.6234 8.68856C12.6903 8.85905 12.7432 9.03365 12.7792 9.20855L12.7774 9.20755Z" fill="#111011"/>
<path d="M10.3266 6.66169C10.2873 6.64711 10.2469 6.63436 10.2066 6.62161C10.2873 6.64711 10.367 6.67443 10.4456 6.70358C10.4063 6.68901 10.3688 6.67544 10.3266 6.66169Z" fill="#111011"/>
<path d="M5.35385 7.2788C2.43576 8.46111 0.702485 11.037 1.49177 13.0179C2.25746 14.9429 5.12567 15.6094 7.96163 14.5629C8.04192 14.5334 8.12323 14.502 8.20554 14.4688L8.21502 14.4645C11.1331 13.2822 12.8664 10.7063 12.0771 8.72536C11.2878 6.74442 8.27295 6.09467 5.35385 7.2788ZM8.11866 14.2229C5.33392 15.3525 2.46871 14.7664 1.73306 12.92C0.998412 11.0717 2.66448 8.65182 5.45022 7.52039C8.23495 6.39078 11.0994 6.9741 11.834 8.82233C12.5697 10.6687 10.9044 13.0915 8.11785 14.2201L8.11866 14.2229Z" fill="#111011"/>
<path d="M10.0621 12.8406C11.1941 10.9244 11.1613 10.4819 9.75989 8.76844C11.6637 9.89402 12.1049 9.85878 13.8202 8.44356C12.6882 10.3598 12.721 10.8023 14.1224 12.5158C12.2185 11.3902 11.7773 11.4254 10.0621 12.8406Z" fill="white"/>
</g>
<defs>
<clipPath id="clip0_2_2603">
<rect width="27" height="29" fill="white"/>
</clipPath>
</defs>
</svg>
